# xmcd
#
# Track frame offsets: 
#        150
#        9129
#        18674
#        29625
#        39265
#        49764
#        59498
#        69597
#        81230
#        89678
#        100149
#        112112
#        124999
#        136785
#        150783
#        160226
#        171550
#        181403
#        194229
#        205242
#        216403
#        229611
#        239422
#        250569
#        261773
#        270766
#        279796
#        290014
#        299556
#        313098
#        324103
#
# Disc length: 4457 seconds
#
# Revision: 0
# Processed by: cddbd v1.5.2PL0 Copyright (c) Steve Scherf et al.
# Submitted via: ExactAudioCopy v0.95b3
#
DISCID=c511671f
DTITLE=The Beatles  - With The Beatles - Deluxe - Stereo - Disc 1  FLA
DTITLE=C
DYEAR=1900
DGENRE=
TTITLE0=From Me To You
TTITLE1=Thank You Girl
TTITLE2=She Loves You (RS1)
TTITLE3=I'll Get You
TTITLE4=It Won't Be Long
TTITLE5=All I've Got To Do
TTITLE6=All My Loving
TTITLE7=Don't Bother Me
TTITLE8=Little Child
TTITLE9=Till There Was You
TTITLE10=Please Mister Postman
TTITLE11=Roll Over Beethoven
TTITLE12=Hold Me Tight
TTITLE13=You Really Got A Hold On Me
TTITLE14=I Wanna Be Your Man
TTITLE15=Devil in Her Heart
TTITLE16=Not A Second Time
TTITLE17=Money
TTITLE18=I Want To Hold Your Hand (1963)
TTITLE19=This Boy (RS15)
TTITLE20=One After 909
TTITLE21=All My Loving (hi-hat)
TTITLE22=I Want To Hold Your Hand (1966)
TTITLE23=She Loves You (RS2)
TTITLE24=From Me To You
TTITLE25=From Me To You
TTITLE26=Thank You Girl
TTITLE27=Thank You Girl
TTITLE28=One After 909
TTITLE29=I Want To Hold Your Hand (2003)
TTITLE30=This Boy (2003)
EXTD=
EXTT0=
EXTT1=
EXTT2=
EXTT3=
EXTT4=
EXTT5=
EXTT6=
EXTT7=
EXTT8=
EXTT9=
EXTT10=
EXTT11=
EXTT12=
EXTT13=
EXTT14=
EXTT15=
EXTT16=
EXTT17=
EXTT18=
EXTT19=
EXTT20=
EXTT21=
EXTT22=
EXTT23=
EXTT24=
EXTT25=
EXTT26=
EXTT27=
EXTT28=
EXTT29=
EXTT30=
PLAYORDER=
